<?xml version="1.0" standalone="no"?>
<!DOCTYPE svg PUBLIC "-//W3C//DTD SVG 20010904//EN"
 "http://www.w3.org/TR/2001/REC-SVG-20010904/DTD/svg10.dtd">
<svg version="1.0" xmlns="http://www.w3.org/2000/svg"
 width="1024.000000pt" height="1024.000000pt" viewBox="0 0 1024.000000 1024.000000"
 preserveAspectRatio="xMidYMid meet">

<g transform="translate(0.000000,1024.000000) scale(0.100000,-0.100000)"
fill="#000000" stroke="none">
<path d="M4816 8104 c-685 -91 -1265 -372 -1754 -849 -171 -166 -261 -275
-400 -484 -355 -535 -528 -1132 -509 -1761 10 -323 41 -516 133 -823 91 -306
249 -617 438 -867 363 -481 778 -807 1267 -999 74 -29 144 -57 156 -62 101
-40 363 -101 556 -130 205 -30 563 -31 764 0 297 45 538 113 793 224 173 75
255 121 475 268 198 132 313 228 480 400 141 146 233 256 324 389 447 652 617
1385 501 2153 -80 528 -271 976 -590 1389 -473 611 -1183 1029 -1945 1144
-146 22 -550 27 -689 8z m469 -234 c401 -29 718 -119 1075 -307 472 -247 890
-654 1133 -1103 210 -387 318 -745 348 -1158 22 -300 -14 -629 -102 -938 -86
-302 -266 -661 -460 -921 -93 -124 -362 -395 -499 -503 -531 -420 -1203 -634
-1849 -590 -706 48 -1319 330 -1785 821 -454 478 -707 1068 -756 1769 -29 410
56 876 234 1281 208 472 566 901 981 1179 302 201 567 321 887 399 286 70 515
91 793 71z"/>
<path d="M4940 7804 c-320 -38 -531 -86 -734 -166 -377 -147 -679 -345 -971
-635 -321 -318 -587 -787 -700 -1233 -13 -52 -27 -115 -30 -140 -4 -24 -8 -48
-11 -51 -14 -23 -44 -341 -44 -465 0 -246 46 -576 110 -794 198 -668 629
-1223 1206 -1553 277 -158 541 -253 884 -318 143 -27 537 -38 713 -20 197 21
458 81 634 147 649 243 1183 718 1488 1325 186 369 278 725 292 1129 15 446
-69 843 -266 1255 -206 431 -556 822 -991 1107 -123 81 -384 212 -521 262
-140 51 -348 104 -501 127 -127 19 -473 33 -558 23z m425 -129 c317 -37 567
-111 844 -250 509 -255 927 -669 1175 -1163 114 -228 212 -534 253 -792 28
-178 25 -569 -6 -745 -77 -443 -236 -813 -495 -1160 -99 -132 -321 -360 -456
-468 -287 -231 -623 -398 -979 -487 -485 -121 -975 -97 -1456 71 -389 135
-759 381 -1016 675 -188 215 -279 351 -399 595 -282 574 -336 1270 -149 1900
62 209 196 491 330 692 514 773 1473 1234 2354 1132z"/>
<path d="M4349 7025 c-87 -32 -125 -64 -389 -332 -228 -231 -283 -293 -323
-360 -26 -45 -54 -101 -63 -125 -17 -50 -33 -234 -34 -393 0 -154 -1 -155 -60
-148 -64 8 -131 -24 -168 -79 -40 -61 -40 -131 -3 -316 56 -270 87 -344 160
-381 l38 -20 7 -83 c9 -113 24 -163 88 -298 55 -115 91 -171 103 -159 3 4 1
305 -6 670 -6 365 -8 779 -4 919 8 322 0 302 197 511 398 422 466 479 564 465
54 -7 197 -48 429 -121 244 -78 222 -77 431 -10 482 154 509 157 634 57 61
-48 439 -434 499 -510 83 -103 83 -105 85 -474 1 -261 -12 -936 -26 -1418 -3
-69 0 -85 11 -85 18 0 145 229 167 300 8 28 17 84 20 125 9 131 11 137 46 144
48 10 86 52 107 121 31 101 74 355 75 446 1 75 -2 89 -24 122 -35 51 -86 77
-152 77 l-55 0 -7 155 c-13 288 -22 361 -56 433 -53 113 -116 188 -384 454
-290 288 -328 316 -442 326 -72 5 -197 -24 -475 -113 -108 -34 -191 -55 -221
-55 -27 0 -106 19 -190 44 -402 125 -494 143 -579 111z m2471 -1565 c-5 -25
-21 -108 -35 -185 -14 -77 -30 -149 -34 -160 -5 -11 -7 70 -6 180 l3 200 34
12 c18 6 36 8 40 5 4 -4 3 -27 -2 -52z m-3359 33 c11 -12 14 -57 15 -182 0
-91 4 -177 8 -191 6 -18 5 -22 -3 -15 -20 19 -81 314 -81 392 0 19 45 16 61
-4z"/>
<path d="M5794 6475 c-50 -12 -131 -37 -181 -54 -107 -37 -112 -37 -180 -11
-42 16 -57 18 -77 9 -32 -15 -50 -59 -42 -102 10 -52 107 -137 157 -137 30 0
223 62 346 111 95 38 116 35 214 -24 95 -57 269 -147 286 -147 50 0 -47 108
-246 273 -131 110 -149 115 -277 82z"/>
<path d="M4265 6474 c-30 -17 -147 -118 -287 -250 -71 -65 -95 -104 -68 -104
19 0 184 81 288 142 85 50 109 60 136 55 18 -3 111 -35 208 -71 97 -36 189
-66 205 -66 37 0 126 52 151 88 30 42 35 74 18 115 -20 48 -54 57 -113 28 -24
-11 -53 -21 -64 -21 -11 0 -87 21 -167 46 -169 53 -260 64 -307 38z"/>
<path d="M4892 6145 c-17 -21 -21 -48 -27 -170 l-7 -145 -39 -22 c-268 -160
-413 -268 -505 -379 -128 -155 -241 -353 -286 -500 -12 -40 -13 -17 -18 243
l-5 287 -26 28 c-14 15 -67 74 -117 131 -82 91 -96 103 -94 81 1 -3 6 -329 12
-723 8 -559 13 -724 24 -749 13 -33 126 -179 267 -347 43 -52 151 -190 238
-307 88 -116 165 -214 170 -218 14 -8 14 49 0 114 -13 64 -118 275 -203 411
-36 58 -66 108 -66 112 0 46 165 -175 333 -447 30 -50 74 -112 98 -138 46 -53
147 -132 156 -123 6 5 -10 52 -55 163 -24 59 -14 80 16 31 34 -58 150 -288
251 -500 55 -115 104 -208 109 -208 5 0 37 60 72 133 207 435 298 607 319 607
6 0 -7 -42 -28 -92 -21 -51 -42 -104 -46 -116 -6 -22 -5 -23 17 -11 92 49 156
123 269 314 74 125 243 364 269 380 27 17 17 -8 -38 -97 -73 -114 -164 -294
-192 -377 -23 -69 -27 -155 -7 -149 6 3 39 43 72 90 81 117 219 293 364 468
67 80 147 182 179 226 l58 81 12 654 c7 360 15 690 18 734 6 97 -6 124 -36 83
-11 -14 -55 -66 -96 -115 -42 -48 -83 -97 -90 -109 -10 -15 -17 -96 -26 -309
l-12 -288 -28 89 c-57 176 -166 368 -279 489 -86 92 -228 203 -359 282 -63 38
-125 76 -137 83 -22 14 -23 22 -23 130 0 128 -11 185 -40 200 -28 15 -67 12
-74 -6 -3 -9 -6 -85 -6 -170 0 -134 3 -160 20 -194 25 -49 65 -78 143 -102 69
-21 122 -51 131 -74 3 -9 6 -35 6 -58 0 -32 -6 -48 -25 -66 -14 -13 -26 -22
-27 -19 -2 2 -8 13 -14 24 -8 15 -23 21 -57 23 -51 3 -83 -10 -153 -63 -98
-75 -214 -74 -326 1 -80 54 -103 64 -151 64 -35 0 -48 -5 -60 -22 l-15 -23
-22 21 c-12 12 -24 39 -27 61 -4 34 -1 43 24 69 17 17 55 37 89 48 96 30 133
53 165 103 l29 47 0 168 c0 155 -1 168 -19 178 -30 16 -48 12 -69 -15z m-322
-648 c0 -7 -48 -60 -106 -117 -93 -91 -102 -98 -73 -55 35 53 157 185 171 185
4 0 8 -6 8 -13z m1169 -66 c74 -78 132 -161 111 -161 -5 0 -10 3 -10 8 0 9
-82 95 -140 147 -44 38 -70 85 -47 85 6 0 45 -36 86 -79z m-904 -29 c-3 -3
-11 0 -18 7 -9 10 -8 11 6 5 10 -3 15 -9 12 -12z m234 -316 c36 -12 48 -12 89
0 26 8 88 17 137 21 76 4 100 2 155 -17 117 -40 169 -87 289 -264 31 -45 33
-53 28 -105 -16 -146 -64 -271 -148 -383 -127 -170 -293 -253 -504 -252 -262
1 -469 129 -585 362 -30 61 -80 244 -80 294 0 34 102 187 167 250 51 49 124
91 189 108 51 12 211 4 263 -14z m160 -1088 c-67 -21 -147 -22 -218 -4 -29 8
-54 16 -56 18 -2 2 71 3 162 3 l166 0 -54 -17z"/>
<path d="M5055 4888 c-55 -20 -144 -19 -202 4 -29 11 -35 9 -72 -16 -41 -29
-65 -31 -142 -11 -24 6 -33 -1 -87 -66 l-60 -72 24 -69 c94 -278 273 -398 593
-398 220 0 338 40 449 152 34 35 69 73 77 85 25 36 85 186 85 213 0 29 -101
160 -124 160 -7 0 -30 -7 -51 -15 -41 -18 -62 -14 -115 21 -31 21 -41 22 -70
14 -55 -16 -174 -14 -209 4 -35 19 -31 19 -96 -6z m-43 -429 c29 -6 64 -17 78
-24 18 -9 32 -10 50 -3 97 39 207 47 260 20 54 -27 51 -48 -12 -77 -169 -79
-456 -70 -581 17 -24 17 -26 22 -15 36 34 40 119 52 220 31z"/>
<path d="M4440 6084 c-154 -19 -421 -82 -398 -95 7 -3 33 -10 58 -14 25 -3 87
-18 139 -31 51 -14 110 -26 131 -26 20 0 109 22 196 50 87 28 178 56 202 63
23 7 39 16 35 20 -23 21 -271 44 -363 33z"/>
<path d="M5580 6080 c-116 -12 -154 -20 -144 -30 9 -8 361 -123 414 -135 14
-3 70 7 130 24 58 16 128 32 155 36 81 12 81 20 -2 43 -197 56 -393 78 -553
62z"/>
</g>
</svg>
